<svg version="1.1" xmlns="http://www.w3.org/2000/svg" xmlns:xlink="http://www.w3.org/1999/xlink" x="0px" y="0px" viewBox="-47 170.9 500 500" style="enable-background:new -47 170.9 500 500;" xml:space="preserve">

	<g id="icon-mask" fill="#FFFFFF">
		<path d="M345.5,527.8h71.6v71.5l0,0c0,39.6-32,71.6-71.5,71.6c-39.5,0-71.5-32-71.5-71.6l0,0V498.1H274 c0-39.5,32.1-71.6,71.5-71.6c39.6,0,71.6,32,71.6,71.6h-42c0-16.4-13.2-29.7-29.6-29.7c-16.2,0-29.5,13.3-29.5,29.7v101.2l0,0 c0,16.4,13.3,29.7,29.5,29.7c16.4,0,29.6-13.3,29.6-29.6v-0.1v-29.6h-29.6L345.5,527.8L345.5,527.8z"/>
		<polygon points="274,426.6 223.5,670.9 181.6,670.9 131,426.6 172.9,426.6 202.6,569.7 232.2,426.6 		"/>
		<path d="M8.9,548.7c-12.9-12.9-20.9-30.8-20.9-50.6c0-39.5,32-71.6,71.5-71.6c39.5,0,71.5,32,71.5,71.6 H89.1c0-16.4-13.3-29.7-29.6-29.7c-16.3,0-29.6,13.3-29.6,29.7c0,8.2,3.4,15.5,8.7,21l0,0c5.4,5.4,12.9,8.6,21,8.6v0.1 c19.8,0,37.6,8,50.5,20.9l0,0c13,12.9,21,30.9,21,50.6c0,39.6-32,71.6-71.5,71.6c-39.5,0-71.5-32-71.5-71.6h41.8 c0,16.4,13.3,29.6,29.6,29.6c16.3,0,29.6-13.2,29.6-29.6c0-8.1-3.3-15.5-8.8-20.9l0,0c-5.3-5.4-12.8-8.7-20.9-8.7l0,0 C39.7,569.7,21.9,561.6,8.9,548.7L8.9,548.7L8.9,548.7z"/>
		<path d="M440,408.1C440,408.1,440,408.1,440,408.1c0-24-19.5-43.5-43.4-43.5c-12,0-22.8,4.9-30.7,12.7 h-88.8l62.7-62.8c11.1,0,22.3-4.3,30.7-12.7c17-17,17-44.5,0-61.5c-16.8-17-44.4-17-61.4,0c-8.4,8.5-12.7,19.6-12.7,30.7 l-62.8,62.9v-88.8c7.8-7.9,12.8-18.7,12.8-30.8c0-24-19.5-43.4-43.5-43.4c-24,0-43.5,19.4-43.5,43.4c0,12.1,5,22.9,12.8,30.8v88.8 l-62.7-62.9c0-11.1-4.3-22.2-12.8-30.7c-17-17-44.4-17-61.4,0c-17,17-17,44.5,0,61.5c8.5,8.4,19.7,12.7,30.7,12.7l62.8,62.8H40.2 c-7.9-7.8-18.8-12.7-30.7-12.7c-24,0-43.5,19.5-43.5,43.5c0,0,0,0,0,0H440z"/>
	</g>
</svg>
