<svg version="1.1" xmlns="http://www.w3.org/2000/svg" xmlns:xlink="http://www.w3.org/1999/xlink" x="0px" y="0px" viewBox="-47 170.9 500 500" style="enable-background:new -47 170.9 500 500;" xml:space="preserve">

	<path id="background" fill="#FFC83B" d="M453.1,238.5c0-37.3-30.2-67.6-67.6-67.6H20.6c-37.3,0-67.7,30.2-67.7,67.6v364.8 c0,37.3,30.2,67.6,67.6,67.6h364.8c37.3,0,67.6-30.2,67.6-67.6V238.5H453.1z"/>

	<g id="icon" fill="#FFFFFF">
		<path d="M305.5,497.8H357v51.5l0,0c0,28.5-23,51.6-51.4,51.6c-28.4,0-51.4-23.1-51.4-51.6l0,0v-72.8h-0.1 c0-28.5,23.1-51.5,51.4-51.5C334,425,357,448,357,476.5h-30.2c0-11.8-9.5-21.4-21.3-21.4c-11.7,0-21.2,9.5-21.2,21.4v72.8l0,0 c0,11.8,9.6,21.4,21.2,21.4c11.8,0,21.3-9.5,21.3-21.3v-0.1V528h-21.3L305.5,497.8L305.5,497.8z"/>
		<polygon points="254.1,425 217.8,600.9 187.6,600.9 151.2,425 181.4,425 202.7,528 224,425 "/>
		<path d="M63.4,512.9c-9.3-9.3-15-22.2-15-36.4c0-28.5,23-51.5,51.4-51.5c28.4,0,51.4,23.1,51.4,51.5h-30.1 c0-11.8-9.6-21.4-21.3-21.4c-11.7,0-21.3,9.5-21.3,21.4c0,5.9,2.4,11.2,6.2,15.1l0,0c3.9,3.9,9.3,6.2,15.1,6.2v0.1 c14.2,0,27.1,5.8,36.3,15.1l0,0c9.3,9.3,15.1,22.2,15.1,36.4c0,28.5-23,51.6-51.4,51.6c-28.4,0-51.4-23.1-51.4-51.6h30.1 c0,11.8,9.6,21.3,21.3,21.3c11.8,0,21.3-9.5,21.3-21.3c0-5.9-2.4-11.2-6.3-15l0,0c-3.8-3.9-9.2-6.3-15-6.3l0,0 C85.6,528,72.7,522.2,63.4,512.9L63.4,512.9L63.4,512.9z"/>
		<path d="M373.5,411.7C373.5,411.7,373.5,411.7,373.5,411.7c0-17.3-14-31.3-31.2-31.3 c-8.6,0-16.4,3.5-22.1,9.2h-63.9l45.1-45.2c8,0,16-3.1,22.1-9.1c12.2-12.2,12.2-32.1,0-44.3c-12.1-12.2-31.9-12.2-44.2,0 c-6.1,6.1-9.1,14.1-9.1,22.1l-45.2,45.3v-64c5.6-5.7,9.2-13.5,9.2-22.2c0-17.3-14-31.2-31.3-31.2c-17.3,0-31.3,14-31.3,31.2 c0,8.7,3.6,16.5,9.2,22.2v64L135.8,313c0-8-3.1-16-9.2-22.1c-12.2-12.2-32-12.2-44.2,0c-12.2,12.2-12.2,32,0,44.3 c6.1,6.1,14.2,9.1,22.1,9.1l45.2,45.2H85.9c-5.7-5.7-13.6-9.2-22.1-9.2c-17.3,0-31.3,14-31.3,31.3c0,0,0,0,0,0H373.5z"/>
	</g>

</svg>